<svg xmlns="http://www.w3.org/2000/svg" width="612" height="792" x="0" y="0" version="1.1" viewBox="0 0 612 792"><g id="Layer_1"><path fill="#AB38F5" d="M328.357 182.986h-43.649L188.06 340.759s36.558 68.331 118.471 68.331c81.916 0 118.47-68.331 118.47-68.331zm-82.301 157.126 60.476-98.705 60.474 98.705z"/><path fill="#000" d="m110.987 474.01-24.809-.041L37.63 607.438l23.99.039 10.183-30.035 52.894.086 10.086 30.068 24.294.04zm-12.531 20.178 19.744 63.107-39.717-.064zM208.849 511.298c-6.635 1.573-14.692 8.314-16.607 18.744l.029-17.7-20.874-.034-.155 95.292 21.458.035.086-52.926c.015-9.06 6.887-30.038 32.164-25.661l.034-18.43s-8.242-1.192-16.135.68M477.941 564.546c-.613 13.188-5.096 25.899-21.717 27.022-18.33 1.238-20.309-12.852-20.288-25.528l.089-54.815-21.666-.035-.102 62.775c-.017 10.268 2.799 34.986 32.326 35.035 18.85.03 28.082-8.82 32.404-15.644l-.022 13.232 20.115.033.155-95.293-21.207-.034zM270.562 580.569l.08-51.828 24.775.029.025-17.839-24.775-.029.049-28.273-20.843-.033-.049 28.272-16.081-.023-.026 17.84 16.082.022-.081 52.515c-.024 15.019 5.828 27.778 29.995 27.778 10.171 0 15.749-1.622 15.749-1.622l.026-16.873s-7.291 1.034-12.565 1.034c-4.795 0-12.361-2.068-12.361-10.97M363.702 508.536c-18.882-.031-27.611 9.342-32.099 16.106l.084-51.641-21.546-.036-.218 133.54 21.547.034.082-50.624c.023-14.167 4.329-27.255 21.979-28.447 18.33-1.238 20.305 11.814 20.284 24.489l-.089 54.652 22.215.036.104-64.205c.014-8.202-2.816-33.856-32.343-33.904M557.865 509.799c-6.635 1.573-14.692 8.314-16.607 18.744l.029-17.7-20.874-.034-.155 95.292 21.458.035.086-52.926c.015-9.06 6.887-30.038 32.164-25.661l.034-18.43s-8.242-1.192-16.135.68"/></g></svg>